<svg id="Layer_1" data-name="Layer 1" xmlns="http://www.w3.org/2000/svg" viewBox="0 0 32 53.5"><defs><style>.cls-1{fill:#fff;}</style></defs><title>accessory_helmet</title><path d="M239,188.5c7.52,0,14,15.79,14,23.54,0,6.84-5.75,14.46-14,14.46s-14-7.62-14-14.46c0-7.75,6.48-23.54,14-23.54m0-2c-9.49,0-16,17.7-16,25.54s6.51,16.46,16,16.46,16-8.62,16-16.46-6.51-25.54-16-25.54Z" transform="translate(-223 -175)"/><path class="cls-1" d="M228.36,190c.42-6.7,5-12,10.64-12s10.22,5.3,10.64,12Z" transform="translate(-223 -175)"/><path d="M239,179c4.78,0,8.76,4.33,9.53,10H229.47c.77-5.67,4.75-10,9.53-10m0-2c-6.44,0-11.67,6.27-11.67,14h23.34c0-7.73-5.23-14-11.67-14Z" transform="translate(-223 -175)"/><rect class="cls-1" x="2" y="15" width="28" height="4" rx="0.21" ry="0.21"/><path d="M252,191v2H226v-2h26m.79-2H225.21a1.21,1.21,0,0,0-1.21,1.21v3.58a1.21,1.21,0,0,0,1.21,1.21h27.58a1.21,1.21,0,0,0,1.21-1.21v-3.58a1.21,1.21,0,0,0-1.21-1.21Z" transform="translate(-223 -175)"/><path class="cls-1" d="M235.61,190a13,13,0,0,1-3.22-.24L230.51,181a4.5,4.5,0,0,1,3.9-2h9.18a4.48,4.48,0,0,1,3.9,2l-1.88,8.72a13,13,0,0,1-3.22.24Z" transform="translate(-223 -175)"/><path d="M243.59,180a4,4,0,0,1,2.84,1.22l-1.66,7.7c-.67.08-1.78.08-2.38.08h-6.78c-.6,0-1.71,0-2.38-.08l-1.66-7.7a4,4,0,0,1,2.84-1.22h9.18m0-2h-9.18c-2.7,0-4.91,1.94-4.91,3.1l1.9,8.8c0,1,1.84,1.1,4.21,1.1h6.78c2.37,0,4.21-.05,4.21-1.1l1.9-8.8c0-1.16-2.21-3.1-4.91-3.1Z" transform="translate(-223 -175)"/><path class="cls-1" d="M237.58,190a1.58,1.58,0,0,1-1.58-1.58l-1-10.93a1.57,1.57,0,0,1,1.58-1.49h4.84a1.58,1.58,0,0,1,1.58,1.58l-1,10.74a1.61,1.61,0,0,1-1.58,1.68Z" transform="translate(-223 -175)"/><path d="M241.42,177a.59.59,0,0,1,.58.52l-1,10.71v.19a.59.59,0,0,1-.58.58h-2.84a.59.59,0,0,1-.58-.58v-.19l-1-10.71a.59.59,0,0,1,.58-.52h4.84m0-2h-4.84a2.59,2.59,0,0,0-2.58,2.58l1,10.84a2.59,2.59,0,0,0,2.58,2.58h2.84a2.59,2.59,0,0,0,2.58-2.58l1-10.84a2.59,2.59,0,0,0-2.58-2.58Z" transform="translate(-223 -175)"/></svg>