<svg id="Layer_1" data-name="Layer 1" xmlns="http://www.w3.org/2000/svg" viewBox="0 0 32 57.5"><defs><style>.cls-1{fill:#fff;}</style></defs><title>accessory_top_hat</title><path d="M119,188.5c7.52,0,14,15.79,14,23.54,0,6.84-5.75,14.46-14,14.46s-14-7.62-14-14.46c0-7.75,6.48-23.54,14-23.54m0-2c-9.49,0-16,17.7-16,25.54s6.51,16.46,16,16.46,16-8.62,16-16.46-6.51-25.54-16-25.54Z" transform="translate(-103 -171)"/><rect class="cls-1" x="2" y="19" width="28" height="4" rx="0.67" ry="0.67"/><path d="M132,191v2H106v-2h26m.33-2H105.67a1.67,1.67,0,0,0-1.67,1.67v2.66a1.67,1.67,0,0,0,1.67,1.67h26.66a1.67,1.67,0,0,0,1.67-1.67v-2.66a1.67,1.67,0,0,0-1.67-1.67Z" transform="translate(-103 -171)"/><rect class="cls-1" x="7" y="1" width="18" height="18"/><path d="M127,173v16H111V173h16m1.17-2H109.83a.84.84,0,0,0-.83.83v18.34a.83.83,0,0,0,.83.83h18.34a.83.83,0,0,0,.83-.83V171.83a.83.83,0,0,0-.83-.83Z" transform="translate(-103 -171)"/><rect class="cls-1" x="7" y="15" width="18" height="4"/><path d="M127,187v2H111v-2h16m2-2H109v6h20v-6Z" transform="translate(-103 -171)"/></svg>