<svg id="Layer_1" data-name="Layer 1" xmlns="http://www.w3.org/2000/svg" viewBox="0 0 39 53.5"><defs><style>.cls-1,.cls-2{fill:#fff;stroke:#000;stroke-miterlimit:10;stroke-width:2px;}.cls-1{fill-rule:evenodd;}</style></defs><title>accessory_ushanka</title><path d="M199,188.5c7.52,0,14,15.79,14,23.54,0,6.84-5.75,14.46-14,14.46s-14-7.62-14-14.46c0-7.75,6.48-23.54,14-23.54m0-2c-9.49,0-16,17.7-16,25.54s6.51,16.46,16,16.46,16-8.62,16-16.46-6.51-25.54-16-25.54Z" transform="translate(-179.5 -175)"/><path class="cls-1" d="M186,207h0a2.5,2.5,0,0,0,2.5-2.5v-12A2.5,2.5,0,0,0,186,190h0a2.5,2.5,0,0,0-2.5,2.5l-3,12C180.5,205.88,184.62,207,186,207Z" transform="translate(-179.5 -175)"/><path class="cls-1" d="M212,207h0a2.5,2.5,0,0,1-2.5-2.5v-12A2.5,2.5,0,0,1,212,190h0a2.5,2.5,0,0,1,2.5,2.5l3,12C217.5,205.88,213.38,207,212,207Z" transform="translate(-179.5 -175)"/><rect class="cls-2" x="4.25" y="4" width="30" height="14" rx="2.87" ry="2.87"/><rect class="cls-2" x="8.25" y="1" width="22" height="17" rx="4.87" ry="4.87"/><polygon points="19.5 4.35 20.74 8.17 24.76 8.17 21.51 10.53 22.75 14.35 19.5 11.99 16.25 14.35 17.49 10.53 14.24 8.17 18.26 8.17 19.5 4.35"/></svg>