<svg id="Layer_1" data-name="Layer 1" xmlns="http://www.w3.org/2000/svg" viewBox="0 0 38 49.5"><defs><style>.cls-1{fill:#fff;}</style></defs><title>accessory_headphones</title><path d="M279,188.5c7.52,0,14,15.79,14,23.54,0,6.84-5.75,14.46-14,14.46s-14-7.62-14-14.46c0-7.75,6.48-23.54,14-23.54m0-2c-9.49,0-16,17.7-16,25.54s6.51,16.46,16,16.46,16-8.62,16-16.46-6.51-25.54-16-25.54Z" transform="translate(-260 -179)"/><rect class="cls-1" x="29" y="15" width="8" height="14" rx="1.88" ry="1.88"/><path d="M295.13,195a.89.89,0,0,1,.87.88v10.25a.88.88,0,0,1-.87.87h-4.25a.89.89,0,0,1-.88-.87V195.88a.89.89,0,0,1,.88-.88h4.25m0-2h-4.25a2.88,2.88,0,0,0-2.88,2.88v10.25a2.88,2.88,0,0,0,2.88,2.87h4.25a2.88,2.88,0,0,0,2.87-2.87V195.88a2.88,2.88,0,0,0-2.87-2.88Z" transform="translate(-260 -179)"/><rect class="cls-1" x="1" y="15" width="8" height="14" rx="1.88" ry="1.88"/><path d="M267.13,195a.89.89,0,0,1,.87.88v10.25a.88.88,0,0,1-.87.87h-4.25a.89.89,0,0,1-.88-.87V195.88a.89.89,0,0,1,.88-.88h4.25m0-2h-4.25a2.88,2.88,0,0,0-2.88,2.88v10.25a2.88,2.88,0,0,0,2.88,2.87h4.25a2.88,2.88,0,0,0,2.87-2.87V195.88a2.88,2.88,0,0,0-2.87-2.88Z" transform="translate(-260 -179)"/><path d="M294,195h-2v-3c0-6.07-6.93-11-13-11h0c-6.07,0-13,4.93-13,11v3h-2v-3c0-7.17,7.83-13,15-13h0c7.17,0,15,5.83,15,13Z" transform="translate(-260 -179)"/></svg>