<svg id="Layer_1" data-name="Layer 1" xmlns="http://www.w3.org/2000/svg" viewBox="0 0 32 53.38"><defs><style>.cls-1{fill:#fff;}.cls-2{fill:none;stroke:#000;stroke-miterlimit:10;stroke-width:2px;}</style></defs><title>accessory_baseball_cap</title><path d="M159,188.5c7.52,0,14,15.79,14,23.54,0,6.84-5.75,14.46-14,14.46s-14-7.62-14-14.46c0-7.75,6.48-23.54,14-23.54m0-2c-9.49,0-16,17.7-16,25.54s6.51,16.46,16,16.46,16-8.62,16-16.46-6.51-25.54-16-25.54Z" transform="translate(-143 -175.13)"/><path class="cls-1" d="M148.78,188.5c.42-6.43,4.84-11.5,10.22-11.5s9.8,5.07,10.22,11.5Z" transform="translate(-143 -175.13)"/><path d="M159,178c4.55,0,8.35,4.11,9.11,9.5H149.89c.76-5.39,4.56-9.5,9.11-9.5m0-2c-6.21,0-11.25,6-11.25,13.5h22.5c0-7.46-5-13.5-11.25-13.5Z" transform="translate(-143 -175.13)"/><ellipse class="cls-1" cx="16" cy="2.56" rx="2.69" ry="1.56"/><path d="M159,177.13c.93,0,1.69.25,1.69.56s-.76.56-1.69.56-1.69-.25-1.69-.56.76-.56,1.69-.56m0-2c-2.72,0-3.69,1.38-3.69,2.56s1,2.56,3.69,2.56,3.69-1.38,3.69-2.56-1-2.56-3.69-2.56Z" transform="translate(-143 -175.13)"/><path class="cls-2" d="M153.38,187.25a8.1,8.1,0,0,1,1.12-3.94c.55-.82,3.38-3.93,3.38-3.93" transform="translate(-143 -175.13)"/><path class="cls-2" d="M164.63,187.25a8,8,0,0,0-1.13-3.94c-.55-.82-3.37-3.93-3.37-3.93" transform="translate(-143 -175.13)"/><path class="cls-1" d="M169.6,195a1.74,1.74,0,0,1-1.66-1.8s-.24-1.41-8.94-1.41-8.94,1.39-8.94,1.41a1.66,1.66,0,1,1-3.31,0c0-3.54,4.81-5.82,12.25-5.82s12.25,2.28,12.25,5.82A1.73,1.73,0,0,1,169.6,195Z" transform="translate(-143 -175.13)"/><path d="M159,188.38c6,0,11.25,1.61,11.25,4.82a.67.67,0,1,1-1.31,0c0-1.9-4.55-2.41-9.94-2.41s-9.94.51-9.94,2.41a.67.67,0,1,1-1.31,0c0-3.21,5.29-4.82,11.25-4.82m0-2c-8.17,0-13.25,2.61-13.25,6.82a2.73,2.73,0,0,0,2.65,2.8,2.7,2.7,0,0,0,2.62-2.35c.52-.26,2.32-.86,8-.86s7.46.6,8,.86A2.7,2.7,0,0,0,169.6,196a2.73,2.73,0,0,0,2.65-2.8c0-4.21-5.08-6.82-13.25-6.82Z" transform="translate(-143 -175.13)"/></svg>