<svg id="Layer_1" data-name="Layer 1" xmlns="http://www.w3.org/2000/svg" viewBox="0 0 32 56.5"><defs><style>.cls-1{fill:#fff;}.cls-2{fill:none;stroke:#000;stroke-miterlimit:10;stroke-width:2px;}</style></defs><title>body_north_or_south_walk_2</title><path class="cls-1" d="M200,212.5c-8.84,0-15-8.15-15-15.46s6.33-24.54,15-24.54,15,17.22,15,24.54S208.84,212.5,200,212.5Z" transform="translate(-184 -171.5)"/><path d="M200,173.5c7.52,0,14,15.79,14,23.54,0,6.84-5.75,14.46-14,14.46s-14-7.62-14-14.46c0-7.75,6.48-23.54,14-23.54m0-2c-9.49,0-16,17.7-16,25.54s6.51,16.46,16,16.46,16-8.62,16-16.46-6.51-25.54-16-25.54Z" transform="translate(-184 -171.5)"/><polyline class="cls-2" points="22 39.5 22 49.5 26 49.5"/><polyline class="cls-2" points="10 39.5 10 55.5 6 55.5"/></svg>