<svg id="Layer_1" data-name="Layer 1" xmlns="http://www.w3.org/2000/svg" viewBox="0 0 71.14 68.19"><defs><style>.cls-1{fill:#ffce00;}.cls-2,.cls-3{fill:#fff;}.cls-3{stroke:#000;stroke-miterlimit:10;stroke-width:2px;}</style></defs><title>death_poached</title><path class="cls-1" d="M213.5,221a2.51,2.51,0,0,1-2.46-2.14,1,1,0,0,0-1-.86H205.5a4.52,4.52,0,0,1-4.32-3.27,1,1,0,0,0-1-.73H200c-3.94,0-7-4.3-7-8s3.06-8,7-8h4.28a1,1,0,0,0,.94-.66c1.51-4.22,2.77-5.34,3.28-5.34h17c.9,0,2.43,2.52,3.33,5.5a1,1,0,0,0,.73.68c2.9.67,5.44,4.33,5.44,7.82,0,3.93-2.24,8-6,8h-7.21a1,1,0,0,0-1,.8,1,1,0,0,0,.9,1.23,2.49,2.49,0,0,1-.2,5Z" transform="translate(-176.43 -153.81)"/><path d="M225.38,193c.55.34,1.72,2.25,2.49,4.79a2,2,0,0,0,1.47,1.37c2.48.57,4.66,3.77,4.66,6.84,0,3.37-1.91,7-5,7h-7.21a2,2,0,0,0-1.93,1.47v0a2,2,0,0,0,1.77,2.51,1.49,1.49,0,0,1-.12,3h-8a1.5,1.5,0,0,1-1.47-1.29,2,2,0,0,0-2-1.71H205.5a3.52,3.52,0,0,1-3.36-2.55,2,2,0,0,0-1.93-1.45H200c-3.32,0-6-3.83-6-7s2.68-7,6-7h4.28a2,2,0,0,0,1.88-1.33c1.3-3.61,2.26-4.5,2.49-4.67h16.73m.12-2h-17c-1.95,0-3.6,4.26-4.22,6H200c-4.4,0-8,4.6-8,9s3.6,9,8,9h.21a5.53,5.53,0,0,0,5.29,4h4.55a3.51,3.51,0,0,0,3.45,3h8a3.49,3.49,0,0,0,.28-7v0H229c4.4,0,7-4.6,7-9,0-3.79-2.67-8-6.21-8.79-.56-1.85-2.27-6.21-4.29-6.21Z" transform="translate(-176.43 -153.81)"/><path class="cls-2" d="M213,192.76l-5.21,16.59a20.26,20.26,0,0,1-6.74-2.81l-.19-.13-.24,0a5.85,5.85,0,0,1-4.61-2.79l-.19-.37-.39-.13a6,6,0,0,1,1.08-11.61l.43-.06.26-.36c3.07-4.35,9.13-7.06,15.8-7.06a21.71,21.71,0,0,1,11.93,3.39l.2.13.25,0c2.78.28,5,1.74,5,3.31l0,.7.64.3a6,6,0,0,1-2.08,11.52h-.45l-.29.35a18,18,0,0,1-9.92,5.62Z" transform="translate(-176.43 -153.81)"/><path d="M213,185a20.67,20.67,0,0,1,11.37,3.22l.42.27.49,0c2.33.24,4,1.36,4.05,2.25h0v.09l0,1.39,1.28.52a5,5,0,0,1-1.73,9.59l-.9,0-.58.68a16.88,16.88,0,0,1-8.48,5.07l-4-12.66L213,189.42l-1.91,6.08-4,12.65a18.77,18.77,0,0,1-5.51-2.44l-.4-.27-.46-.05a5,5,0,0,1-3.85-2.24l-.37-.75-.79-.26a5,5,0,0,1,.9-9.67l.87-.11.5-.72c2.89-4.1,8.64-6.64,15-6.64m0-2c-7.22,0-13.48,3-16.62,7.49A7,7,0,0,0,195.11,204a6.83,6.83,0,0,0,5.39,3.33,21.56,21.56,0,0,0,8,3.14L213,196.1l4.53,14.42a19.42,19.42,0,0,0,11.36-6.14,7,7,0,0,0,2.44-13.44s0-.06,0-.08c0-2.17-2.54-4-5.86-4.31A22.68,22.68,0,0,0,213,183Z" transform="translate(-176.43 -153.81)"/><path class="cls-2" d="M190.26,209.52c-3.44,0-9.56-.6-11.88-4.63-2.82-4.88,1.1-12.47,5.84-18.14l7.91,2.12-1.83,6.83,8.19,2.2-1.28,4.78,4.1,1.1-1.2,4.46A41.31,41.31,0,0,1,190.26,209.52Z" transform="translate(-176.43 -153.81)"/><path d="M184.58,187.89l6.32,1.69-1.31,4.9-.52,1.93,1.93.52,6.27,1.68-.76,2.84-.52,1.94,1.93.51,2.17.58-.79,2.93a40.1,40.1,0,0,1-9,1.11c-3.22,0-8.95-.53-11-4.13-2.48-4.29,1.17-11.35,5.34-16.5m-.71-2.27c-5.23,6.06-9.52,14.31-6.36,19.77,2.17,3.77,7.24,5.13,12.75,5.13a42.47,42.47,0,0,0,10.67-1.46l1.61-6-4.1-1.1,1.28-4.78-8.2-2.2,1.83-6.83-9.48-2.54Z" transform="translate(-176.43 -153.81)"/><path class="cls-2" d="M231.53,209.52a15.65,15.65,0,0,1-7.74-2,19.78,19.78,0,0,1-2.26-1.56l5.84-1.57-1.1-4.1,4.78-1.28-2.19-8.19,6.83-1.83-2.61-9.73a26.73,26.73,0,0,1,5.71,2.28c6.33,3.66,10.31,13.06,5.89,20.72a14.88,14.88,0,0,1-13.15,7.24Z" transform="translate(-176.43 -153.81)"/><path d="M234.52,180.78a22.37,22.37,0,0,1,3.77,1.65,15.14,15.14,0,0,1,6.55,8.31,13.47,13.47,0,0,1-1,11,13.89,13.89,0,0,1-12.28,6.74,14.59,14.59,0,0,1-7.24-1.85l-.46-.27,2.83-.76,1.94-.52-.52-1.93L227.5,201l2.85-.76,1.93-.52-.52-1.93-1.68-6.27,4.9-1.31,1.93-.52-.52-1.93-1.87-7m-2.85-2.9,2.79,10.42-6.83,1.83,2.2,8.2-4.78,1.28,1.1,4.09-6.74,1.81a24.92,24.92,0,0,0,3.88,2.9,16.67,16.67,0,0,0,8.24,2.11,15.86,15.86,0,0,0,14-7.74c4.75-8.22.54-18.17-6.25-22.09a30.15,30.15,0,0,0-7.62-2.81Z" transform="translate(-176.43 -153.81)"/><path class="cls-3" d="M199.57,156a24.21,24.21,0,0,1,.91,6c-.2,2.29-5.35,5.7-5.44,8-.09,2.15,4.53,6,4.53,6s-.43-4.58,0-6c.72-2.37,5.75-5.52,5.45-8C204.68,159.17,199.57,156,199.57,156Z" transform="translate(-176.43 -153.81)"/><path class="cls-3" d="M210.57,156a24.21,24.21,0,0,1,.91,6c-.2,2.29-5.35,5.7-5.44,8-.09,2.15,4.53,6,4.53,6s-.43-4.58,0-6c.72-2.37,5.75-5.52,5.45-8C215.68,159.17,210.57,156,210.57,156Z" transform="translate(-176.43 -153.81)"/><path class="cls-3" d="M222.57,156a24.21,24.21,0,0,1,.91,6c-.2,2.29-5.35,5.7-5.44,8-.09,2.15,4.53,6,4.53,6s-.43-4.58,0-6c.72-2.37,5.75-5.52,5.45-8C227.68,159.17,222.57,156,222.57,156Z" transform="translate(-176.43 -153.81)"/></svg>