<svg id="Layer_1" data-name="Layer 1" xmlns="http://www.w3.org/2000/svg" viewBox="0 0 71.14 66.19"><defs><style>.cls-1,.cls-3{fill:#fff;}.cls-2{fill:#ffce00;}.cls-3{stroke:#000;stroke-miterlimit:10;stroke-width:2px;}</style></defs><title>death_sunny_side_up</title><path class="cls-1" d="M191.39,222.77a3.63,3.63,0,0,1-3.56-3.27l-.09-.89h-2.48a2.62,2.62,0,0,1-2.58-2.64,1.86,1.86,0,0,1,0-.33l.16-1.14-1.15-.05h-2.09a4.2,4.2,0,0,1,0-8.4H183l-.2-1.17a5.62,5.62,0,0,1-.08-.87,5.19,5.19,0,0,1,5.13-5.24h15.32a5.15,5.15,0,0,1,4.82,3.49l.24.67h2.6a3.61,3.61,0,0,1,3.37,2.45l.23.67h1a6.28,6.28,0,0,1,0,12.56h-8.09l-.1.89a3.62,3.62,0,0,1-3.55,3.27Z" transform="translate(-163.97 -166.81)"/><path d="M203.13,199.77a4.15,4.15,0,0,1,3.88,2.82l.47,1.34h3.31a2.61,2.61,0,0,1,2.42,1.78l.47,1.34h1.71a5.28,5.28,0,0,1,0,10.56h-9l-.19,1.78a2.62,2.62,0,0,1-2.56,2.38H191.39a2.62,2.62,0,0,1-2.56-2.38l-.2-1.78h-3.37a1.62,1.62,0,0,1-1.58-1.64l0-.19v-.05h0l.33-2.28h-4.4a3.2,3.2,0,0,1,0-6.4h4.5l-.39-2.33a3.78,3.78,0,0,1-.07-.71,4.19,4.19,0,0,1,4.13-4.24h15.32m0-2H187.81a6.21,6.21,0,0,0-6.13,6.24,6,6,0,0,0,.1,1h-2.14a5.2,5.2,0,0,0,0,10.4h2.09a4.36,4.36,0,0,0,0,.52,3.62,3.62,0,0,0,3.58,3.64h1.58a4.63,4.63,0,0,0,4.55,4.16h12.25a4.62,4.62,0,0,0,4.54-4.16h7.21a7.28,7.28,0,0,0,0-14.56h-.29a4.6,4.6,0,0,0-4.31-3.12H208.9a6.16,6.16,0,0,0-5.77-4.16Z" transform="translate(-163.97 -166.81)"/><ellipse class="cls-2" cx="34.57" cy="43.12" rx="7" ry="5"/><path d="M198.53,205.93c3.26,0,6,1.83,6,4s-2.74,4-6,4-6-1.83-6-4,2.75-4,6-4m0-2c-4.41,0-8,2.68-8,6s3.59,6,8,6,8-2.69,8-6-3.58-6-8-6Z" transform="translate(-163.97 -166.81)"/><path class="cls-1" d="M177.79,222.09c-3.44,0-9.56-.6-11.88-4.63-2.82-4.88,1.1-12.47,5.84-18.14l7.91,2.12-1.83,6.83,8.2,2.2-1.28,4.78,4.09,1.1-1.19,4.46a41.38,41.38,0,0,1-9.85,1.28Z" transform="translate(-163.97 -166.81)"/><path d="M172.12,200.45l6.32,1.7-1.32,4.9-.51,1.93,1.93.52,6.26,1.67L184,214l-.52,1.94,1.93.51,2.17.58-.78,2.93a40.24,40.24,0,0,1-9,1.11c-3.23,0-9-.53-11-4.13-2.48-4.3,1.18-11.36,5.35-16.51m-.72-2.26c-5.22,6.06-9.51,14.3-6.36,19.77,2.17,3.77,7.24,5.13,12.76,5.13a42.45,42.45,0,0,0,10.66-1.46l1.61-6-4.1-1.1,1.28-4.78-8.19-2.2,1.83-6.83-9.49-2.54Z" transform="translate(-163.97 -166.81)"/><path class="cls-1" d="M219.07,222.09a15.72,15.72,0,0,1-7.75-2,19.78,19.78,0,0,1-2.26-1.56L214.9,217l-1.09-4.1,4.78-1.28-2.2-8.19,6.83-1.83-2.6-9.73a26.84,26.84,0,0,1,5.7,2.28,15.94,15.94,0,0,1,7,8.87,14.43,14.43,0,0,1-1.11,11.85,14.88,14.88,0,0,1-13.14,7.24Z" transform="translate(-163.97 -166.81)"/><path d="M222.05,193.35a22,22,0,0,1,3.77,1.64,15.2,15.2,0,0,1,6.55,8.32,13.43,13.43,0,0,1-1,11,13.86,13.86,0,0,1-12.27,6.74,14.74,14.74,0,0,1-7.25-1.85c-.15-.08-.3-.18-.46-.28l2.84-.75,1.93-.52-.52-1.93-.58-2.17,2.85-.76,1.93-.52-.52-1.93-1.67-6.27,4.89-1.31,1.94-.52-.52-1.93-1.88-7m-2.85-2.9,2.8,10.42-6.83,1.83,2.19,8.19-4.78,1.29,1.1,4.09-6.74,1.81a24.63,24.63,0,0,0,3.88,2.89,16.58,16.58,0,0,0,8.25,2.12,15.89,15.89,0,0,0,14-7.74c4.74-8.22.53-18.17-6.26-22.09a30.15,30.15,0,0,0-7.62-2.81Z" transform="translate(-163.97 -166.81)"/><rect class="cls-3" x="23.03" y="59.19" width="10" height="4" rx="2" ry="2"/><rect class="cls-3" x="38.03" y="61.19" width="5" height="4" rx="2" ry="2"/><path class="cls-3" d="M186.57,169a24.21,24.21,0,0,1,.91,6c-.2,2.29-5.35,5.7-5.44,8-.09,2.15,4.53,6,4.53,6s-.43-4.58,0-6c.72-2.37,5.75-5.52,5.45-8C191.68,172.17,186.57,169,186.57,169Z" transform="translate(-163.97 -166.81)"/><path class="cls-3" d="M197.57,169a24.21,24.21,0,0,1,.91,6c-.2,2.29-5.35,5.7-5.44,8-.09,2.15,4.53,6,4.53,6s-.43-4.58,0-6c.72-2.37,5.75-5.52,5.45-8C202.68,172.17,197.57,169,197.57,169Z" transform="translate(-163.97 -166.81)"/><path class="cls-3" d="M209.57,169a24.21,24.21,0,0,1,.91,6c-.2,2.29-5.35,5.7-5.44,8-.09,2.15,4.53,6,4.53,6s-.43-4.58,0-6c.72-2.37,5.75-5.52,5.45-8C214.68,172.17,209.57,169,209.57,169Z" transform="translate(-163.97 -166.81)"/></svg>