<svg id="Layer_1" data-name="Layer 1" xmlns="http://www.w3.org/2000/svg" viewBox="0 0 32 42"><defs><style>.cls-1{fill:#fff;}</style></defs><title>expression_scared_southeast</title><path class="cls-1" d="M106,220.5c-8.84,0-15-8.15-15-15.46s6.33-24.54,15-24.54,15,17.22,15,24.54S114.84,220.5,106,220.5Z" transform="translate(-90 -179.5)"/><path d="M106,181.5c7.52,0,14,15.79,14,23.54,0,6.84-5.75,14.46-14,14.46S92,211.88,92,205c0-7.75,6.48-23.54,14-23.54m0-2c-9.49,0-16,17.7-16,25.54s6.51,16.46,16,16.46,16-8.62,16-16.46-6.51-25.54-16-25.54Z" transform="translate(-90 -179.5)"/><circle class="cls-1" cx="10.5" cy="22.5" r="3"/><path d="M100.5,200a2,2,0,1,1-2,2,2,2,0,0,1,2-2m0-2a4,4,0,1,0,4,4,4,4,0,0,0-4-4Z" transform="translate(-90 -179.5)"/><circle class="cls-1" cx="27.5" cy="22.5" r="3"/><path d="M117.5,200a2,2,0,1,1-2,2,2,2,0,0,1,2-2m0-2a4,4,0,1,0,4,4,4,4,0,0,0-4-4Z" transform="translate(-90 -179.5)"/><path d="M115,213a2,2,0,0,1-1-.29,9.5,9.5,0,0,0-4-.71,23.37,23.37,0,0,0-6.3.87,1.85,1.85,0,0,1-.7.13,2,2,0,0,1-1.82-2.83,2,2,0,0,1,1.12-1c.94-.36,5.74-2.13,7.7-2.13s5.14,1.75,6,2.29a2,2,0,0,1-1,3.71Z" transform="translate(-90 -179.5)"/><path d="M110,208c1.9,0,5.15,1.92,5.52,2.14a1,1,0,0,1,.34,1.38,1,1,0,0,1-.86.48,1.1,1.1,0,0,1-.52-.14A10.38,10.38,0,0,0,110,211a24.2,24.2,0,0,0-6.65.94,1,1,0,0,1-.35.06,1,1,0,0,1-.35-1.94c.56-.21,5.54-2.06,7.35-2.06m0-2c-2,0-6.3,1.53-8.06,2.19a3,3,0,0,0-1.67,1.57A3,3,0,0,0,103,214a2.87,2.87,0,0,0,1-.19,22.48,22.48,0,0,1,6-.81,8.73,8.73,0,0,1,3.45.57,3,3,0,1,0,3.1-5.14c-1-.57-4.22-2.43-6.55-2.43Z" transform="translate(-90 -179.5)"/><path d="M101.11,206.24a2.4,2.4,0,0,1-3.39-3.36l-.86-.88a3.63,3.63,0,0,0,5.13,5.1Z" transform="translate(-90 -179.5)"/><path d="M116.85,206.24a2.37,2.37,0,0,0,1.51.55,2.42,2.42,0,0,0,2.42-2.41,2.39,2.39,0,0,0-.54-1.5c.29-.29.57-.59.85-.88a3.62,3.62,0,0,1-5.12,5.1Z" transform="translate(-90 -179.5)"/></svg>