<svg id="Layer_1" data-name="Layer 1" xmlns="http://www.w3.org/2000/svg" viewBox="0 0 32 42"><defs><style>.cls-1{fill:#fff;}</style></defs><title>expression_scared_southwest</title><path class="cls-1" d="M106,220.5c-8.84,0-15-8.15-15-15.46s6.33-24.54,15-24.54,15,17.22,15,24.54S114.84,220.5,106,220.5Z" transform="translate(-90 -179.5)"/><path d="M106,181.5c7.52,0,14,15.79,14,23.54,0,6.84-5.75,14.46-14,14.46S92,211.88,92,205c0-7.75,6.48-23.54,14-23.54m0-2c-9.49,0-16,17.7-16,25.54s6.51,16.46,16,16.46,16-8.62,16-16.46-6.51-25.54-16-25.54Z" transform="translate(-90 -179.5)"/><circle class="cls-1" cx="21.5" cy="22.5" r="3"/><path d="M111.5,200a2,2,0,1,1-2,2,2,2,0,0,1,2-2m0-2a4,4,0,1,0,4,4,4,4,0,0,0-4-4Z" transform="translate(-90 -179.5)"/><circle class="cls-1" cx="4.5" cy="22.5" r="3"/><path d="M94.5,200a2,2,0,1,1-2,2,2,2,0,0,1,2-2m0-2a4,4,0,1,0,4,4,4,4,0,0,0-4-4Z" transform="translate(-90 -179.5)"/><path d="M97,213a2,2,0,0,1-1-3.71c.89-.54,4-2.29,6-2.29s6.76,1.77,7.7,2.13a2,2,0,0,1,1.17,2.57A2,2,0,0,1,109,213a1.94,1.94,0,0,1-.71-.13A23.25,23.25,0,0,0,102,212a9.5,9.5,0,0,0-4,.71A2,2,0,0,1,97,213Z" transform="translate(-90 -179.5)"/><path d="M102,208c1.81,0,6.79,1.85,7.35,2.06A1,1,0,0,1,109,212a1,1,0,0,1-.35-.06A24.2,24.2,0,0,0,102,211a10.38,10.38,0,0,0-4.48.86A1.1,1.1,0,0,1,97,212a1,1,0,0,1-.86-.48,1,1,0,0,1,.34-1.38c.37-.22,3.62-2.14,5.52-2.14m0-2c-2.33,0-5.6,1.86-6.55,2.43a3,3,0,0,0,3.1,5.14A8.73,8.73,0,0,1,102,213a22.35,22.35,0,0,1,5.94.81A3,3,0,0,0,109,214a3,3,0,0,0,2.73-4.24,3,3,0,0,0-1.67-1.57c-1.76-.66-6-2.19-8.06-2.19Z" transform="translate(-90 -179.5)"/><path d="M110.89,206.24a2.4,2.4,0,0,0,3.39-3.36l.86-.88a3.63,3.63,0,0,1-5.13,5.1Z" transform="translate(-90 -179.5)"/><path d="M95.15,206.24a2.37,2.37,0,0,1-1.51.55,2.42,2.42,0,0,1-2.42-2.41,2.39,2.39,0,0,1,.54-1.5c-.29-.29-.57-.59-.85-.88A3.62,3.62,0,0,0,96,207.1Z" transform="translate(-90 -179.5)"/></svg>