<svg id="Layer_1" data-name="Layer 1" xmlns="http://www.w3.org/2000/svg" viewBox="0 0 32 42"><defs><style>.cls-1{fill:#fff;}</style></defs><title>expression_scared_west</title><path class="cls-1" d="M146,220.5c-8.84,0-15-8.15-15-15.46s6.33-24.54,15-24.54,15,17.22,15,24.54S154.84,220.5,146,220.5Z" transform="translate(-130 -179.5)"/><path d="M146,181.5c7.52,0,14,15.79,14,23.54,0,6.84-5.75,14.46-14,14.46s-14-7.62-14-14.46c0-7.75,6.48-23.54,14-23.54m0-2c-9.49,0-16,17.7-16,25.54s6.51,16.46,16,16.46,16-8.62,16-16.46-6.51-25.54-16-25.54Z" transform="translate(-130 -179.5)"/><circle class="cls-1" cx="11.5" cy="22.5" r="3"/><path d="M141.5,200a2,2,0,1,1-2,2,2,2,0,0,1,2-2m0-2a4,4,0,1,0,4,4,4,4,0,0,0-4-4Z" transform="translate(-130 -179.5)"/><path d="M139,213a1.94,1.94,0,0,1-.71-.13A21.79,21.79,0,0,0,133,211.5a1,1,0,0,1-1-.8l-.5-2.5a1,1,0,0,1,.21-.83,1,1,0,0,1,.77-.37c1.62,0,4.72,1.15,6.92,2l.28.11a2,2,0,0,1,1.17,2.57A2,2,0,0,1,139,213Z" transform="translate(-130 -179.5)"/><path d="M132.5,208c1.81,0,6.29,1.85,6.85,2.06A1,1,0,0,1,139,212a1,1,0,0,1-.35-.06A22.14,22.14,0,0,0,133,210.5l-.5-2.5m0-2a2,2,0,0,0-1.55.73,2,2,0,0,0-.41,1.66l.5,2.5a2,2,0,0,0,2,1.61,21.12,21.12,0,0,1,4.94,1.31A3,3,0,0,0,139,214a3,3,0,0,0,2.73-4.24,3,3,0,0,0-1.67-1.57l-.28-.11c-3.66-1.44-5.9-2.08-7.28-2.08Z" transform="translate(-130 -179.5)"/><path d="M140.89,206.24a2.4,2.4,0,0,0,3.39-3.36l.86-.88a3.63,3.63,0,0,1-5.13,5.1Z" transform="translate(-130 -179.5)"/></svg>