<svg id="Layer_1" data-name="Layer 1" xmlns="http://www.w3.org/2000/svg" viewBox="0 0 32 42"><defs><style>.cls-1{fill:#fff;}.cls-2{fill:none;stroke:#000;stroke-miterlimit:10;stroke-width:2px;}</style></defs><title>expression_neutral_southeast</title><path class="cls-1" d="M86,220.5c-8.84,0-15-8.15-15-15.46s6.33-24.54,15-24.54,15,17.22,15,24.54S94.84,220.5,86,220.5Z" transform="translate(-70 -179.5)"/><path d="M86,181.5c7.52,0,14,15.79,14,23.54,0,6.84-5.75,14.46-14,14.46S72,211.88,72,205c0-7.75,6.48-23.54,14-23.54m0-2c-9.49,0-16,17.7-16,25.54s6.51,16.46,16,16.46,16-8.62,16-16.46S95.49,179.5,86,179.5Z" transform="translate(-70 -179.5)"/><circle cx="10.5" cy="22.5" r="2"/><circle cx="27.5" cy="22.5" r="2"/><polyline class="cls-2" points="13 26.5 20 26.5 25 26.5"/></svg>