<svg id="Layer_1" data-name="Layer 1" xmlns="http://www.w3.org/2000/svg" viewBox="0 0 32 42"><defs><style>.cls-1{fill:#fff;}.cls-2{fill:none;}.cls-2,.cls-3{stroke:#000;stroke-miterlimit:10;stroke-width:2px;}</style></defs><title>expression_angry_southeast</title><path class="cls-1" d="M106,220.5c-8.84,0-15-8.15-15-15.46s6.33-24.54,15-24.54,15,17.22,15,24.54S114.84,220.5,106,220.5Z" transform="translate(-90 -179.5)"/><path d="M106,181.5c7.52,0,14,15.79,14,23.54,0,6.84-5.75,14.46-14,14.46S92,211.88,92,205c0-7.75,6.48-23.54,14-23.54m0-2c-9.49,0-16,17.7-16,25.54s6.51,16.46,16,16.46,16-8.62,16-16.46-6.51-25.54-16-25.54Z" transform="translate(-90 -179.5)"/><circle cx="27.5" cy="22.5" r="2"/><circle cx="10.5" cy="22.5" r="2"/><path class="cls-2" d="M115,208s-3.32-2-5-2-7,2-7,2" transform="translate(-90 -179.5)"/><path class="cls-3" d="M115,208c-1-1.24-3.32-2-5-2s-6,.76-7,2a2.27,2.27,0,0,0,0,2c1,1.19,5.48,2,7,2s4-.81,5-2A2.27,2.27,0,0,0,115,208Z" transform="translate(-90 -179.5)"/><line class="cls-2" x1="9" y1="15.5" x2="15" y2="20.5"/><line class="cls-2" x1="29" y1="15.5" x2="23" y2="20.5"/></svg>