<svg id="Layer_1" data-name="Layer 1" xmlns="http://www.w3.org/2000/svg" viewBox="0 0 32 42"><defs><style>.cls-1{fill:#fff;}.cls-2,.cls-3{stroke:#000;stroke-miterlimit:10;stroke-width:2px;}.cls-3{fill:none;}</style></defs><title>expression_angry_south</title><path class="cls-1" d="M66,220.5c-8.84,0-15-8.15-15-15.46s6.33-24.54,15-24.54S81,197.72,81,205,74.84,220.5,66,220.5Z" transform="translate(-50 -179.5)"/><path d="M66,181.5c7.52,0,14,15.79,14,23.54,0,6.84-5.75,14.46-14,14.46S52,211.88,52,205c0-7.75,6.48-23.54,14-23.54m0-2c-9.49,0-16,17.7-16,25.54s6.51,16.46,16,16.46S82,212.88,82,205,75.49,179.5,66,179.5Z" transform="translate(-50 -179.5)"/><circle cx="24.5" cy="22.5" r="2"/><circle cx="7.5" cy="22.5" r="2"/><path class="cls-2" d="M72,208c-1-1.24-4.32-2-6-2s-5,.76-6,2a2.27,2.27,0,0,0,0,2c1,1.19,4.48,2,6,2s5-.81,6-2A2.27,2.27,0,0,0,72,208Z" transform="translate(-50 -179.5)"/><line class="cls-3" x1="6" y1="15.5" x2="12" y2="20.5"/><line class="cls-3" x1="26" y1="15.5" x2="20" y2="20.5"/></svg>