<svg id="Layer_1" data-name="Layer 1" xmlns="http://www.w3.org/2000/svg" viewBox="0 0 32 42"><defs><style>.cls-1{fill:#fff;}</style></defs><title>expression_scared_south</title><path class="cls-1" d="M66,220.5c-8.84,0-15-8.15-15-15.46s6.33-24.54,15-24.54S81,197.72,81,205,74.84,220.5,66,220.5Z" transform="translate(-50 -179.5)"/><path d="M66,181.5c7.52,0,14,15.79,14,23.54,0,6.84-5.75,14.46-14,14.46S52,211.88,52,205c0-7.75,6.48-23.54,14-23.54m0-2c-9.49,0-16,17.7-16,25.54s6.51,16.46,16,16.46S82,212.88,82,205,75.49,179.5,66,179.5Z" transform="translate(-50 -179.5)"/><circle class="cls-1" cx="7.5" cy="22.5" r="3"/><path d="M57.5,200a2,2,0,1,1-2,2,2,2,0,0,1,2-2m0-2a4,4,0,1,0,4,4,4,4,0,0,0-4-4Z" transform="translate(-50 -179.5)"/><circle class="cls-1" cx="24.5" cy="22.5" r="3"/><path d="M74.5,200a2,2,0,1,1-2,2,2,2,0,0,1,2-2m0-2a4,4,0,1,0,4,4,4,4,0,0,0-4-4Z" transform="translate(-50 -179.5)"/><path d="M72,213a2,2,0,0,1-.84-.18,16.65,16.65,0,0,0-10.32,0A2,2,0,0,1,60,213a2,2,0,0,1-.84-3.82c1.12-.51,4.9-2.18,6.84-2.18s5.72,1.67,6.84,2.18A2,2,0,0,1,72,213Z" transform="translate(-50 -179.5)"/><path d="M66,208c1.84,0,6,1.88,6.42,2.09a1,1,0,0,1,.49,1.33A1,1,0,0,1,72,212a1.06,1.06,0,0,1-.42-.09,17.56,17.56,0,0,0-11.16,0A1.06,1.06,0,0,1,60,212a1,1,0,0,1-.91-.58,1,1,0,0,1,.49-1.33C60,209.88,64.16,208,66,208m0-2c-2.1,0-5.78,1.59-7.26,2.28A3,3,0,0,0,60,214a2.9,2.9,0,0,0,1.26-.28,16,16,0,0,1,9.48,0A2.9,2.9,0,0,0,72,214a3,3,0,0,0,1.26-5.72C71.78,207.59,68.1,206,66,206Z" transform="translate(-50 -179.5)"/><path d="M58.11,206.24a2.4,2.4,0,0,1-3.39-3.36l-.86-.88A3.63,3.63,0,0,0,59,207.1Z" transform="translate(-50 -179.5)"/><path d="M73.85,206.24a2.37,2.37,0,0,0,1.51.55,2.42,2.42,0,0,0,2.42-2.41,2.39,2.39,0,0,0-.54-1.5c.29-.29.57-.59.85-.88A3.62,3.62,0,0,1,73,207.1Z" transform="translate(-50 -179.5)"/></svg>