<svg id="Layer_1" data-name="Layer 1" xmlns="http://www.w3.org/2000/svg" viewBox="0 0 32 42"><defs><style>.cls-1{fill:#fff;}.cls-2{fill:none;stroke:#000;stroke-miterlimit:10;stroke-width:2px;}</style></defs><title>expression_neutral_south</title><path class="cls-1" d="M66,220.5c-8.84,0-15-8.15-15-15.46s6.33-24.54,15-24.54S81,197.72,81,205,74.84,220.5,66,220.5Z" transform="translate(-50 -179.5)"/><path d="M66,181.5c7.52,0,14,15.79,14,23.54,0,6.84-5.75,14.46-14,14.46S52,211.88,52,205c0-7.75,6.48-23.54,14-23.54m0-2c-9.49,0-16,17.7-16,25.54s6.51,16.46,16,16.46S82,212.88,82,205,75.49,179.5,66,179.5Z" transform="translate(-50 -179.5)"/><circle cx="7.5" cy="22.5" r="2"/><circle cx="24.5" cy="22.5" r="2"/><polyline class="cls-2" points="10 26.5 16 26.5 22 26.5"/></svg>