<svg id="Layer_1" data-name="Layer 1" xmlns="http://www.w3.org/2000/svg" viewBox="0 0 32 42"><defs><style>.cls-1{fill:#fff;}</style></defs><title>expression_scared_east</title><path class="cls-1" d="M146,220.5c-8.84,0-15-8.15-15-15.46s6.33-24.54,15-24.54,15,17.22,15,24.54S154.84,220.5,146,220.5Z" transform="translate(-130 -179.5)"/><path d="M146,181.5c7.52,0,14,15.79,14,23.54,0,6.84-5.75,14.46-14,14.46s-14-7.62-14-14.46c0-7.75,6.48-23.54,14-23.54m0-2c-9.49,0-16,17.7-16,25.54s6.51,16.46,16,16.46,16-8.62,16-16.46-6.51-25.54-16-25.54Z" transform="translate(-130 -179.5)"/><circle class="cls-1" cx="20.5" cy="22.5" r="3"/><path d="M150.5,200a2,2,0,1,1-2,2,2,2,0,0,1,2-2m0-2a4,4,0,1,0,4,4,4,4,0,0,0-4-4Z" transform="translate(-130 -179.5)"/><path d="M153,213a2,2,0,0,1-1.82-2.83,2,2,0,0,1,1.12-1l.28-.11c2.2-.87,5.3-2,6.92-2a1,1,0,0,1,.77.37,1,1,0,0,1,.21.83l-.5,2.5a1,1,0,0,1-1,.8,22,22,0,0,0-5.3,1.37A1.85,1.85,0,0,1,153,213Z" transform="translate(-130 -179.5)"/><path d="M159.5,208l-.5,2.5a22.14,22.14,0,0,0-5.65,1.44,1,1,0,0,1-.35.06,1,1,0,0,1-.35-1.94c.56-.21,5-2.06,6.85-2.06m0-2c-1.38,0-3.62.64-7.28,2.08l-.28.11a3,3,0,0,0-1.67,1.57A3,3,0,0,0,153,214a2.87,2.87,0,0,0,1.05-.19A21.28,21.28,0,0,1,159,212.5a2,2,0,0,0,2-1.61l.5-2.5a2,2,0,0,0-.41-1.66,2,2,0,0,0-1.55-.73Z" transform="translate(-130 -179.5)"/><path d="M151.11,206.24a2.4,2.4,0,0,1-3.39-3.36l-.86-.88a3.63,3.63,0,0,0,5.13,5.1Z" transform="translate(-130 -179.5)"/></svg>