<svg id="Layer_1" data-name="Layer 1" xmlns="http://www.w3.org/2000/svg" viewBox="0 0 93.02 93.02"><defs><style>.cls-1{fill:#fffbaa;}.cls-2{fill:#f7931e;}</style></defs><title>missile_explosion_3</title><polygon class="cls-1" points="40.2 18.71 45.55 43.85 33.47 21.16 29.58 0 40.2 18.71"/><polygon class="cls-1" points="59.55 71.87 63.44 93.03 52.82 74.32 47.48 49.17 59.55 71.87"/><polygon class="cls-1" points="21.16 59.55 0 63.44 18.71 52.82 43.85 47.48 21.16 59.55"/><polygon class="cls-1" points="74.32 40.2 49.17 45.55 71.87 33.47 93.03 29.58 74.32 40.2"/><circle class="cls-2" cx="55.37" cy="23.21" r="9.54"/><circle class="cls-2" cx="25.1" cy="36.36" r="10.67"/><circle class="cls-2" cx="36.27" cy="24.65" r="8.17"/><circle class="cls-2" cx="21.2" cy="49.07" r="7.5"/><circle class="cls-2" cx="38.19" cy="62.32" r="6.33"/><circle class="cls-2" cx="28.03" cy="50.59" r="4.67"/><circle class="cls-2" cx="70.6" cy="42.12" r="4.67"/><circle class="cls-2" cx="56.89" cy="67.18" r="9.5"/><circle class="cls-2" cx="67.41" cy="53.88" r="8.42"/><circle class="cls-2" cx="67.49" cy="33.6" r="7.58"/><circle class="cls-2" cx="45.2" cy="24.03" r="6.33"/><circle class="cls-2" cx="28.45" cy="60.72" r="8"/><circle class="cls-2" cx="44.71" cy="68.85" r="4.67"/><circle class="cls-2" cx="43.31" cy="17.82" r="4.67"/></svg>