<svg id="Layer_1" data-name="Layer 1" xmlns="http://www.w3.org/2000/svg" viewBox="0 0 97.49 97.49"><defs><style>.cls-1{fill:#fffbaa;}.cls-2{fill:#f7931e;}</style></defs><title>missile_explosion_4</title><polygon class="cls-1" points="49.27 51.22 59.12 55.46 51.22 48.22 55.46 38.37 48.22 46.28 38.37 42.03 46.28 49.27 42.03 59.12 49.27 51.22"/><polygon class="cls-1" points="44.96 13.51 45.55 30.64 40.25 14.34 40.15 0 44.96 13.51"/><polygon class="cls-1" points="57.24 83.15 57.34 97.49 52.53 83.98 51.94 66.85 57.24 83.15"/><polygon class="cls-1" points="14.34 57.24 0 57.34 13.51 52.53 30.64 51.94 14.34 57.24"/><polygon class="cls-1" points="83.98 44.96 66.85 45.55 83.15 40.25 97.49 40.15 83.98 44.96"/><circle class="cls-2" cx="61.52" cy="27.34" r="8"/><circle class="cls-2" cx="29.42" cy="35.03" r="9"/><circle class="cls-2" cx="42.45" cy="25.43" r="6.5"/><circle class="cls-2" cx="23.37" cy="46.87" r="5.5"/><circle class="cls-2" cx="37.8" cy="62.87" r="4.5"/><circle class="cls-2" cx="29.83" cy="49.56" r="3"/><circle class="cls-2" cx="73.22" cy="48.61" r="3"/><circle class="cls-2" cx="55.38" cy="70.9" r="5.5"/><circle class="cls-2" cx="68.05" cy="59.63" r="6.5"/><circle class="cls-2" cx="71.65" cy="39.67" r="6"/><circle class="cls-2" cx="51.35" cy="26.37" r="4.5"/><circle class="cls-2" cx="28.49" cy="59.61" r="6"/><circle class="cls-2" cx="43.09" cy="70.43" r="3"/><circle class="cls-2" cx="50.58" cy="19.93" r="3"/></svg>