<svg id="Layer_1" data-name="Layer 1" xmlns="http://www.w3.org/2000/svg" viewBox="0 0 181 181"><defs><style>.cls-1,.cls-2{fill:red;}.cls-2{stroke:red;stroke-miterlimit:10;}</style></defs><title>reticle</title><path class="cls-1" d="M200,153.54a47,47,0,1,1-33.23,13.77A46.69,46.69,0,0,1,200,153.54m0-16A63,63,0,1,0,244.59,156,62.83,62.83,0,0,0,200,137.54Z" transform="translate(-109.54 -110.04)"/><path class="cls-1" d="M200,259.53a59.23,59.23,0,0,1-23.15-4.72L200,231.65l23.16,23.16A59.28,59.28,0,0,1,200,259.53Z" transform="translate(-109.54 -110.04)"/><path class="cls-1" d="M200,237.31l15.88,15.88a55.05,55.05,0,0,1-31.76,0L200,237.31M200,226l-30,30A63.09,63.09,0,0,0,230,256l-30-30Z" transform="translate(-109.54 -110.04)"/><path class="cls-1" d="M231.15,200.54l23.16-23.16a58.69,58.69,0,0,1,0,46.32Z" transform="translate(-109.54 -110.04)"/><path class="cls-1" d="M252.71,184.64a54.69,54.69,0,0,1,0,31.8l-15.9-15.9,15.9-15.9m2.75-14.06-30,30,30,30a63.11,63.11,0,0,0,0-59.93Z" transform="translate(-109.54 -110.04)"/><path class="cls-1" d="M176.89,146.27a59.16,59.16,0,0,1,46.31,0L200,169.43Z" transform="translate(-109.54 -110.04)"/><path class="cls-1" d="M200,145.56a55.29,55.29,0,0,1,15.88,2.33L200,163.77l-15.88-15.88A55.29,55.29,0,0,1,200,145.56m0-8a63,63,0,0,0-30,7.56l30,30,30-30a63,63,0,0,0-30-7.56Z" transform="translate(-109.54 -110.04)"/><path class="cls-1" d="M145.77,223.7a58.69,58.69,0,0,1,0-46.32l23.16,23.16Z" transform="translate(-109.54 -110.04)"/><path class="cls-1" d="M147.37,184.64l15.9,15.9-15.9,15.9a54.69,54.69,0,0,1,0-31.8m-2.75-14.06a63.11,63.11,0,0,0,0,59.93l30-30-30-30Z" transform="translate(-109.54 -110.04)"/><circle class="cls-2" cx="90.5" cy="90.5" r="12.5"/><polygon class="cls-2" points="140.5 140.5 152.01 140.5 152.01 140.7 180.3 168.99 180.5 168.99 180.5 180.5 168.99 180.5 168.99 180.3 140.7 152.01 140.7 152.01 140.5 152.01 140.5 140.5"/><polygon class="cls-2" points="139.73 167.13 139.73 160.05 139.86 160.05 160.05 139.86 160.05 139.73 167.13 139.73 167.13 146.8 167 146.8 146.8 167 146.8 167 146.8 167.13 139.73 167.13"/><polygon class="cls-2" points="0.5 180.5 0.5 168.99 0.7 168.99 28.98 140.7 28.98 140.5 40.5 140.5 40.5 152.01 40.3 152.01 12.02 180.3 12.02 180.3 12.02 180.5 0.5 180.5"/><polygon class="cls-2" points="13.88 139.73 20.95 139.73 20.95 139.86 41.14 160.05 41.27 160.05 41.27 167.13 34.2 167.13 34.2 167 14 146.8 14 146.8 13.88 146.8 13.88 139.73"/><polygon class="cls-2" points="40.5 40.5 28.98 40.5 28.98 40.3 0.7 12.02 0.5 12.02 0.5 0.5 12.02 0.5 12.02 0.7 40.3 28.98 40.3 28.98 40.5 28.98 40.5 40.5"/><polygon class="cls-2" points="13.88 41.27 13.88 34.2 14 34.2 34.2 14 34.2 13.88 41.27 13.88 41.27 20.95 41.14 20.95 20.95 41.14 20.95 41.14 20.95 41.27 13.88 41.27"/><polygon class="cls-2" points="140.5 40.5 140.5 28.98 140.7 28.98 168.99 0.7 168.99 0.5 180.5 0.5 180.5 12.02 180.3 12.02 152.01 40.3 152.01 40.3 152.01 40.5 140.5 40.5"/><polygon class="cls-2" points="139.73 13.88 146.8 13.88 146.8 14 167 34.2 167.13 34.2 167.13 41.27 160.05 41.27 160.05 41.14 139.86 20.95 139.86 20.95 139.73 20.95 139.73 13.88"/><path class="cls-2" d="M242,145.81v-7.4a75,75,0,0,0-84,0v7.41A69.12,69.12,0,0,1,242,145.81Z" transform="translate(-109.54 -110.04)"/><path class="cls-2" d="M261.56,158.54h-6.79a69.14,69.14,0,0,1,0,84h7.41a75.08,75.08,0,0,0,0-84Z" transform="translate(-109.54 -110.04)"/><polygon class="cls-2" points="140.5 40.5 146.4 40.5 146.4 40.5 140.5 40.5 140.5 40.5"/><path class="cls-2" d="M138.53,242.54h6.78a69.12,69.12,0,0,1,0-84h-7.41a75.06,75.06,0,0,0,0,84Z" transform="translate(-109.54 -110.04)"/><path class="cls-2" d="M242,262.06v-6.79a69.14,69.14,0,0,1-84,0v7.4a75.06,75.06,0,0,0,84,0Z" transform="translate(-109.54 -110.04)"/></svg>