<svg id="Layer_1" data-name="Layer 1" xmlns="http://www.w3.org/2000/svg" viewBox="0 0 150.98 150.97"><defs><style>.cls-1,.cls-2{fill:red;}.cls-2{stroke:red;stroke-miterlimit:10;}</style></defs><title>reticle</title><path class="cls-1" d="M90.46,43.5A47,47,0,1,1,57.23,57.27,47,47,0,0,1,90.46,43.5m0-16A63,63,0,1,0,135.05,46,63,63,0,0,0,90.46,27.5Z" transform="translate(-15.01 -15.01)"/><path class="cls-1" d="M90.46,149.49a59.2,59.2,0,0,1-23.15-4.72l23.15-23.16,23.16,23.16A59.24,59.24,0,0,1,90.46,149.49Z" transform="translate(-15.01 -15.01)"/><path class="cls-1" d="M90.46,127.27l15.88,15.88a55.05,55.05,0,0,1-31.76,0l15.88-15.88m0-11.31-30,30a63.08,63.08,0,0,0,60,0Z" transform="translate(-15.01 -15.01)"/><path class="cls-1" d="M121.61,90.5l23.16-23.16a58.69,58.69,0,0,1,0,46.32Z" transform="translate(-15.01 -15.01)"/><path class="cls-1" d="M143.17,74.6a54.69,54.69,0,0,1,0,31.8l-15.9-15.9,15.9-15.9m2.75-14.06-30,30,30,30a63.11,63.11,0,0,0,0-59.93Z" transform="translate(-15.01 -15.01)"/><path class="cls-1" d="M67.35,36.23a59.18,59.18,0,0,1,46.31,0L90.46,59.39Z" transform="translate(-15.01 -15.01)"/><path class="cls-1" d="M90.46,35.52a55.44,55.44,0,0,1,15.88,2.33L90.46,53.73,74.58,37.85a55.44,55.44,0,0,1,15.88-2.33m0-8a63.1,63.1,0,0,0-30,7.56l30,30,30-30A63.1,63.1,0,0,0,90.46,27.52Z" transform="translate(-15.01 -15.01)"/><path class="cls-1" d="M36.23,113.66a58.69,58.69,0,0,1,0-46.32L59.39,90.5Z" transform="translate(-15.01 -15.01)"/><path class="cls-1" d="M37.83,74.6l15.9,15.9-15.9,15.9a54.69,54.69,0,0,1,0-31.8M35.08,60.54a63.11,63.11,0,0,0,0,59.93l30-30-30-30Z" transform="translate(-15.01 -15.01)"/><circle class="cls-2" cx="75.49" cy="75.49" r="12.5"/><path class="cls-2" d="M132.46,35.77v-7.4a75,75,0,0,0-84,0v7.41A69.12,69.12,0,0,1,132.46,35.77Z" transform="translate(-15.01 -15.01)"/><path class="cls-2" d="M152,48.5h-6.79a69.14,69.14,0,0,1,0,84h7.41a75.08,75.08,0,0,0,0-84Z" transform="translate(-15.01 -15.01)"/><path class="cls-2" d="M29,132.5h6.78a69.11,69.11,0,0,1,0-84H28.36a75.08,75.08,0,0,0,0,84Z" transform="translate(-15.01 -15.01)"/><path class="cls-2" d="M132.46,152v-6.79a69.14,69.14,0,0,1-84,0v7.4a75.08,75.08,0,0,0,84,0Z" transform="translate(-15.01 -15.01)"/></svg>